<svg width="286" height="127" viewBox="0 0 286 127" fill="none" xmlns="http://www.w3.org/2000/svg">
<path d="M105.546 126.06H22.627V121.61L23.0947 121.58L35.8066 120.752C46.0523 120.089 51.5201 118.805 54.4297 116.936C55.8601 116.017 56.6637 114.96 57.1201 113.756C57.5834 112.533 57.7012 111.127 57.7012 109.484V77.96L22.9248 14.9346V14.9336C20.9746 11.4624 18.6426 9.42876 15.6602 8.12891C12.649 6.8166 8.95267 6.24147 4.24316 5.74414V5.74316L0.950195 5.41309L0.5 5.36719V0.769531H57.0537V5.21973L56.585 5.24902L48.5811 5.74609L48.5801 5.74512C45.0589 6.03452 42.3052 6.35409 40.207 6.77246C38.0938 7.19385 36.7094 7.70545 35.877 8.33789C35.4693 8.64767 35.2025 8.98036 35.042 9.34082C34.8813 9.70189 34.8135 10.1199 34.8477 10.6191C34.9174 11.6385 35.4042 12.9383 36.2822 14.6279L64.8613 69.709H67.3164L96.6006 14.459V14.458C97.4799 12.8073 98.0018 11.5375 98.1396 10.541C98.2718 9.58547 98.0491 8.9175 97.4434 8.37402C96.7931 7.79072 95.6572 7.31073 93.8545 6.9082C92.0667 6.50902 89.6959 6.19969 86.6416 5.91016L78.874 5.24805L78.416 5.20898V0.769531H125.79V5.35352L125.355 5.41113L121.589 5.9082H121.588C117.103 6.48976 113.828 7.02178 111.175 8.28711C108.554 9.53683 106.505 11.5212 104.542 15.0967L104.543 15.0977L70.2363 77.958V109.65C70.2363 111.336 70.355 112.752 70.8145 113.966C71.2665 115.16 72.0598 116.19 73.4736 117.078C74.9023 117.975 76.9702 118.732 79.9658 119.345C82.9577 119.957 86.8464 120.421 91.8965 120.752H91.8955L105.077 121.58L105.546 121.609V126.06Z" fill="white" stroke="white"/>
<path d="M158.674 29.7148V60.5781H189.686V65.8613H158.674V96.5771H152.948V65.8613H121.938V60.5781H152.948V29.7148H158.674Z" fill="white" stroke="white"/>
<path d="M285.499 125.79H191.281V121.336L191.755 121.311L207.289 120.481C219.125 119.818 225.388 118.534 228.693 116.652C230.32 115.726 231.208 114.667 231.703 113.472C232.207 112.257 232.324 110.859 232.324 109.215V17.0752C232.324 15.3468 232.208 13.8915 231.725 12.6436C231.25 11.4167 230.408 10.3559 228.887 9.44531C227.351 8.52551 225.119 7.75808 221.874 7.14941C218.634 6.5416 214.412 6.09707 208.917 5.80762V5.80859L191.757 4.97949L191.281 4.95703V0.5H285.499V4.95996L285.019 4.97949L272.732 5.47559L272.733 5.47656C266.018 5.80755 260.879 6.29327 256.949 6.94141C253.015 7.59032 250.321 8.3975 248.476 9.35645C246.645 10.3079 245.664 11.4007 245.123 12.6348C244.573 13.8906 244.455 15.3453 244.455 17.0752V109.381C244.455 111.064 244.587 112.472 245.097 113.679C245.599 114.866 246.486 115.9 248.084 116.796C249.696 117.7 252.026 118.459 255.393 119.073C258.756 119.687 263.124 120.151 268.796 120.481H268.795L285.024 121.311L285.499 121.335V125.79Z" fill="white" stroke="white"/>
</svg>
