<svg width="1142" height="78" viewBox="0 0 1142 78" fill="none" xmlns="http://www.w3.org/2000/svg">
<path d="M1039.11 77.5C1022.49 77.5 1008 63 1008 39C1008 15 1024.62 0 1040.24 0C1045.07 0 1050.19 1.9 1054.73 5.2L1057 0.5H1059.99L1069.79 27.3H1066.24C1057.57 10.8 1050.19 2.3 1040.24 2.3C1021.07 2.3 1015.98 24.332 1015.98 39C1015.98 53.2511 1020.1 75.2 1039.11 75.2C1050.19 75.2 1056.58 63.6 1065.1 50.4H1069.08C1059.85 66.2 1051.61 77.5 1039.11 77.5Z" fill="white"/>
<path d="M1070 76.5V74.5L1075.82 74C1085.06 73.2 1085.91 71 1085.91 67V11.2C1085.91 7 1085.06 4.80001 1076.25 4.1L1070 3.6V1.5H1131.93L1139.74 23.6H1136.19C1129.09 8.1 1126.53 3.8 1117.16 3.8H1100.97C1094.29 3.8 1092.73 5.2 1092.73 10.5V33.4H1104.52C1111.76 33.4 1114.03 29.7 1115.03 20.9H1118.01V50.7H1115.03L1114.32 44C1113.75 38.6 1111.62 35.7 1104.52 35.7H1092.73V67.3C1092.73 72.7 1094.57 74.2 1102.39 74.2H1111.76C1125.54 74.2 1129.37 66.6 1138.04 50.6H1141.73L1129.52 76.5H1070Z" fill="white"/>
<path d="M931.906 76.5V73.9H935.599C940 73.9 942.559 70.8 942.559 66.8V11.2C942.559 7 941.707 4.80001 936.168 4.1L931.906 3.6V1.5H963.44V3.5L958.61 3.7C953.071 4 952.644 6 955.059 10.2L986.167 65.7H987.871V10.9C987.871 6.8 987.303 4.7 979.775 4L974.945 3.5V1.5H1005.06V3.6L1002.08 3.9C994.689 4.7 994.405 7.10001 994.405 11.2V76.5H987.871L950.656 10.3H948.951V66.9C948.951 71 950.23 73.2 959.462 73.9L965.57 74.4V76.5H931.906Z" fill="white"/>
<path d="M900.991 1.69824L924.145 67.0986C925.565 71.1985 929.5 73.5 935 74L936.928 74.3984V76.498H902.27V74.498L906.815 73.998C915.48 73.198 918.179 71.698 916.9 67.498L909.514 44.7988H881.958L874.571 66.998C873.151 71.298 874.713 73.3986 883.804 74.0986L888.775 74.498V76.498H864.987C864.985 76.4989 864.984 76.4997 864.983 76.5H860.863L860.862 76.498H857.242V74.3984L859.172 74.0742L841.688 49C833.591 37.5002 827.625 34.5996 818.677 34.5996H812.569V66.9004C812.569 71.0001 813.564 73.1004 825.353 73.9004L832.881 74.4004V76.5H791.547V74.4004L796.66 73.9004C804.899 73.1004 805.609 70.8998 805.609 66.7998V11.2002C805.609 7.0002 804.899 4.79961 797.229 4.09961L791.547 3.59961V1.5H828.194C846.517 1.50012 857.028 8.29998 857.028 17.2998C857.028 25.3997 848.79 32.4995 831.035 33.5996V34.0996C839.7 36.2996 842.966 38.2005 849.5 49.4004L860.967 68.5C862.225 70.5966 863.808 73.3113 866.567 71.6797C868.142 70.599 869.161 69.1348 869.884 67.0986L893.463 0.898438H899.713L900.991 1.69824ZM882.81 42.3984H908.804L897.725 8.49805H894.173L882.81 42.3984ZM820.239 3.7998C814.132 3.79984 812.569 5.20044 812.569 9.40039V31.7002C815.978 32.1002 819.245 32.2002 824.643 32.2002C838.847 32.2002 848.364 28.6001 848.364 19.2002V15C848.364 8.40007 842.256 3.79991 828.194 3.7998H820.239Z" fill="white"/>
<path d="M652 76.5V74.4L655.693 73.9C661.943 73.1 662.653 70.8 662.653 66.8V11.2C662.653 7 661.801 4.80001 656.261 4.1L652 3.6V1.5H683.533V3.5L678.704 3.7C673.164 4 672.738 6 675.153 10.2L706.26 65.7H707.965V10.9C707.965 6.8 707.397 4.7 699.868 4L695.039 3.5V1.5H725.152V3.6L722.169 3.9C714.783 4.7 714.499 7.10001 714.499 11.2V76.5H707.965L670.75 10.3H669.045V66.9C669.045 71 670.323 73.2 679.556 73.9L685.664 74.4V76.5H652Z" fill="white"/>
<path d="M611.813 78C596.344 78 580 63.1237 580 39.5026C580 15.0773 596.928 0 612.689 0C618.089 0 623.05 2.11083 627.428 5.62887L629.909 0.502577H632.828L641 24.5258H637.498C630.055 10.8557 622.175 2.31186 612.689 2.31186C593.309 2.31186 588.179 25.1109 588.179 39.5026C588.179 53.7492 592.661 75.6882 612.105 75.6882C622.758 75.6882 634.725 63.4253 634.725 49.9562V45.5335C634.725 42.4175 633.703 40.7088 628.012 40.7088H615.316L615.462 38.1959H639.833L640.854 39V77.2964H638.081L635.746 63.1237H634.287C628.742 71.768 620.423 78 611.813 78Z" fill="white"/>
<path d="M522 76.5V74.4L531.517 73.9C546.005 73.1 547.142 70.8 547.142 66.8V11.2C547.142 7 546.005 4.80001 532.511 4.1L522 3.6V1.5H579.101V3.6L571.573 3.9C555.096 4.7 553.96 7 553.96 11.2V66.9C553.96 71 555.238 73.1 569.158 73.9L579.101 74.4V76.5H522Z" fill="white"/>
<path d="M329.81 76.5V74.4L334.782 73.9C342.878 73.1 343.73 70.8 343.73 66.8V37.4H305.805V66.9C305.805 71 306.657 73.2 314.47 73.9L319.583 74.4V76.5H286.203V74.4L290.749 73.9C298.135 73.1 298.845 70.8 298.845 66.8V11.2C298.845 7 298.135 4.80001 291.175 4.1L286.203 3.6V1.5H319.583V3.6L315.748 3.9C306.515 4.7 305.805 7 305.805 11.2V34.8H343.73V11.2C343.73 7 343.02 4.80001 335.35 4.1L329.81 3.6V1.5H363.332V3.6L359.781 3.9C351.117 4.7 350.548 7 350.548 11.2V66.9C350.548 71 351.259 73.1 358.645 73.9L363.332 74.4V76.5H329.81Z" fill="white"/>
<path d="M226.828 76.5V74.4L232.794 73.9C243.021 73.1 244.015 70.8 244.015 66.8V6.6C244.015 4.5 243.021 3.8 240.18 3.8H233.078C223.561 3.8 221.714 8 214.754 23.6H211.203L218.731 1.5H276.117L283.645 23.6H280.094C273.134 8 271.287 3.8 261.77 3.8H254.668C251.969 3.8 250.833 4.5 250.833 6.6V66.9C250.833 71 251.969 73.2 261.77 73.9L268.02 74.4V76.5H226.828Z" fill="white"/>
<path d="M173.14 77.6C158.367 77.6 147.856 70.3 147.856 55.2V11.2C147.856 7 147.146 4.80001 141.464 4.1L137.203 3.6V1.5H168.168V3.6L164.475 3.9C155.385 4.7 154.816 7 154.816 11.2V56.4C154.816 69.4 163.055 74.8 174.418 74.8C185.64 74.8 194.162 69.1 194.162 56.4V11.2C194.162 7 193.31 4.80001 186.208 4.1L180.952 3.6V1.5H209.077V3.6L206.094 3.9C198.85 4.7 198.424 7.10001 198.424 11.2V55.4C198.424 70.3 187.77 77.6 173.14 77.6Z" fill="white"/>
<path d="M103.595 77.7C87.9698 77.7 72.2031 63 72.2031 38.8C72.2031 15 87.8278 0 103.595 0C119.361 0 134.986 15 134.986 38.8C134.986 63 119.219 77.7 103.595 77.7ZM103.595 75.4C122.362 75.4 127.185 53.0667 127.185 38.8C127.185 24.5258 122.358 2.3 103.595 2.3C84.8306 2.3 80.0041 24.5258 80.0041 38.8C80.0041 53.0667 84.8269 75.4 103.595 75.4Z" fill="white"/>
<path d="M759.391 77.7C743.767 77.7 728 63 728 38.8C728 15 743.625 0 759.391 0C775.158 0 790.783 15 790.783 38.8C790.783 63 775.016 77.7 759.391 77.7ZM759.391 75.4C778.159 75.4 782.982 53.0667 782.982 38.8C782.982 24.5258 778.155 2.3 759.391 2.3C740.627 2.3 735.801 24.5258 735.801 38.8C735.801 53.0667 740.624 75.4 759.391 75.4Z" fill="white"/>
<path d="M13.494 9.6C11.0793 5.3 7.6703 4.5 1.9886 3.9L0 3.7V1.5H33.5221V3.6L28.6926 3.9C20.1701 4.6 18.8917 5.6 21.0223 9.7L38.3515 43.1H40.1981L57.9534 9.6C60.084 5.6 59.0897 4.7 51.7035 4L47.0161 3.6V1.5H74.9985V3.7L72.7258 4C67.3282 4.7 64.6294 5.3 62.2147 9.7L41.4764 47.7V66.9C41.4764 71 42.6128 73.1 54.8285 73.9L62.7828 74.4V76.5H13.352V74.4L21.0223 73.9C33.38 73.1 34.5164 70.8 34.5164 66.8V47.7L13.494 9.6Z" fill="white"/>
<path d="M445.978 60V40.4126H426V37.6816H445.978V18H449.022V37.6816H469V40.4126H449.022V60H445.978Z" fill="white"/>
</svg>
