<svg width="772" height="772" viewBox="0 0 772 772" fill="none" xmlns="http://www.w3.org/2000/svg">
<g opacity="0.8">
<path d="M309.595 83.0166C314.557 82.3156 326.058 81.9611 330.997 83C335.499 83.9473 376.481 102.664 379.865 104.973C380.925 105.696 381.513 106.931 382.158 107.974C383.786 110.602 388.002 110.49 390.272 112.665C394.631 115.073 399.523 117.948 403.932 120.138C407.123 121.563 408.379 122.035 411.757 122.939C410.52 119.129 409.602 117.066 407.451 113.674C405.9 111.649 404.625 110.997 403.679 108.698C403.847 106.976 403.998 107.349 405.516 105.73L406.949 103.047C412.127 100.465 418.406 99.1382 423.565 96.7607C441.034 88.7101 460.091 82.5767 479.194 91.0479C488.139 92.4817 492.671 86.3999 499.517 86.1182C508.293 85.7577 518.701 85.9593 527.627 85.9482C538.638 85.9349 558.365 82.218 568.046 83.5547C583.762 90.8516 600.833 95.6577 615.963 103.828C624.369 108.368 632.495 113.746 640.835 118.412C649.939 123.964 661.004 126.356 669.003 133.279C674.85 135.138 683.346 148.655 684.509 150.804L693.369 172.162C701.34 187.095 704.576 201.772 711.099 217.361C712.626 221.022 710.677 223.574 711.474 226.607C716.07 244.093 716.712 263.668 720.522 280.903C723.244 293.222 740.998 303.04 732.724 318.674C729.176 326.375 720.044 328.755 716.253 334.193C710.907 341.859 717.096 347.679 703.344 350.762C701.512 343.346 700.799 336.764 699.853 329.187C701.464 327.014 705.437 322.941 702.716 320.657C695.148 319.719 680.491 332.88 672.807 335.075C668.983 329.721 667.628 325.881 663.172 320.701C661.171 325.219 657.653 347.271 656.294 348.418C655.825 348.585 654.41 348.904 654.424 349.37C654.593 354.933 656.622 361.016 657.287 366.577C658.295 375.007 657.85 383.343 658.524 391.771C660.553 408.52 665.173 425.102 668.2 441.74C669.334 447.981 670.187 455.464 671.738 461.35L675.182 463.541C677.164 468.18 679.062 472.72 681.915 476.968C681.596 471.555 680.945 466.164 679.966 460.822C679.254 457.065 677.881 451.451 677.576 447.826C679.582 445.857 684.108 442.343 686.535 440.776L686.61 435.397C690.265 432.373 694.656 429.601 697.922 426.274C699.96 424.202 697.337 417.372 700.747 416.569C701.998 416.287 703.32 416.532 704.365 417.243C705.459 418.001 719.472 438.099 720.344 440.045C725.835 452.35 723.202 470.833 721.613 484.08C716.253 490.465 709.773 496.779 703.901 502.733C700.2 506.494 688.906 516.381 686.47 520.615C677.951 535.434 682.023 557.989 670.215 571.052C668.317 573.149 660.323 576.967 656.589 579.854C653.468 588.54 650.75 599.314 647.873 608.271C646.543 612.416 648.9 614.146 647.935 616.221C644.987 622.543 636.454 624.65 633.038 630.99C629.983 636.049 625.583 640.861 623.058 646.234C617.946 657.776 619.098 672.842 605.523 678.562C596.85 682.215 590.58 681.484 581.246 682.637C574.058 683.524 566.992 686.255 560.606 687.487C549.383 689.234 534.173 689.323 523.593 685.487C517.45 683.262 505.557 678.544 500.848 674.634C491.368 666.764 480.957 660.985 471.145 653.683C465.901 649.776 461.075 643.831 455.893 639.707C449.169 634.049 445.565 632.644 440.008 625.705C458.947 631.988 470.334 651.094 489.667 654.22C501.114 656.073 507.141 657.576 517.946 661.828C530.959 666.949 550.138 660.702 562.56 655.426C559.275 650.673 549.974 641.317 545.067 637.974C539.505 637.246 531.202 636.297 525.874 634.71C519.375 632.777 515.542 630.994 508.659 629.593C520.022 627.482 528.48 625.634 538.939 621.143C543.081 619.36 556.941 611.179 559.673 611.294C572.727 611.839 589.489 613.768 602.66 613.533C601.587 611.955 600.528 610.372 599.479 608.78C600.505 607.468 601.741 606.2 601.189 604.652C599.403 599.629 595.973 594.033 590.992 591.431C587.197 589.586 576.608 583.64 572.845 583.36C562.517 582.593 545.831 585.822 536.028 588.025C517.347 592.229 513.673 586.096 498.28 578.479C495.403 577.051 485.329 577.077 480.947 576.363C474.045 560.636 470.905 544.293 451.812 536.636C444.033 533.514 434.057 530.92 427.005 526.478C429.348 521.543 437.355 505.735 432.154 501.988C430.866 501.784 429.489 501.816 428.519 502.738C424.236 506.804 420.332 515.055 417.773 520.057C413.547 528.153 409.011 535.553 405.693 544.066C404.072 548.234 403.745 553.113 402.222 556.886C396.711 570.569 391.876 584.416 387.051 598.312C385.27 603.441 378.664 606.484 375.08 610.346C370.939 615.241 366.541 621.359 363.319 626.884C360.236 632.173 360.057 636.985 358.643 642.824C357.264 648.513 354.424 653.63 351.796 658.871C347.563 667.304 331.92 678.15 323.132 681.577C314.458 683.94 305.13 681.967 296.211 682.246C290.58 682.423 285.9 683.466 280.463 683.825C264.489 684.872 245.695 686.401 231.041 679.369C227.105 677.485 222.632 672.651 219.347 669.854C215.509 666.635 211.557 663.54 207.498 660.578C203.757 657.811 199.762 654.968 196.045 652.41C188.931 647.515 172.587 638.439 167.578 631.717C161.377 623.394 150.703 607.663 147.065 598.613C162.906 608.279 162.321 613.498 172.082 624.304C174.198 623.67 174.704 623.302 176.754 623.94C181.481 625.412 186.696 627.474 191.704 627.545C193.553 627.571 198.259 626.786 199.81 627.039C211.723 628.986 223.03 634.559 231.36 642.864C234.756 646.252 236.449 649.072 239.179 652.353C248.907 650.907 251.343 653.989 259.804 655.302C265.35 656.166 281.571 653.098 287.167 651.511C294.778 649.09 301.741 649.249 309.336 647.147C313.087 646.11 316.045 642.997 319.888 641.534C321.403 640.426 322.203 639.37 323.412 637.982C322.161 637.003 318.802 635.508 317.25 634.572C307.881 628.941 304.314 628.68 293.53 627.079C287.822 626.29 282.609 625.727 276.832 625.78C272.919 623.186 270.534 622.157 266.011 620.738C253.949 617.063 220.446 618.521 213.842 614.5C212.032 613.396 211.719 611.463 211.285 609.609C210.914 608.022 210.576 607.06 209.555 605.721C209.463 605.597 209.367 605.481 209.273 605.361C218.35 602.271 233.442 598.073 242.693 595.878L244.388 595.35L246.427 595.354C251.51 594.339 269.351 595.11 276.146 594.809C284.054 592.246 305.838 593.794 315.188 594.388L318.783 590.654C311.922 587.387 301.573 585.232 294.029 581.857C286.833 578.643 283.245 575.224 277.503 572.054C270.379 568.116 253.606 560.907 245.663 561.08C240.271 561.2 222.507 560.1 219.155 563.088C219.674 564.027 219.649 563.674 219.669 564.632C214.804 566.64 209.359 567.221 204.648 569.189C201.854 570.36 199.534 572.985 196.07 574.431C190.669 572.852 184.952 572.195 179.669 570.661C170.678 568.05 163.135 567.154 153.81 566.573C145.661 559.625 136.834 542.502 129.446 533.887C128.242 532.481 128.454 530.534 127.04 529.248C122.562 525.169 116.288 522.588 111.008 519.631C105.312 516.439 99.7848 513.29 94.1251 510.103C88.2596 506.799 81.9306 503.541 76.5089 499.67C67.2945 493.094 64.3093 482.852 55.126 476.64C53.4968 471.858 53.8907 465.676 53.5333 460.403C52.9391 451.905 52.2535 443.413 51.4766 434.929C50.5807 425.964 48.9564 416.929 48.1973 407.982C47.964 405.229 49.0484 401.507 49.7794 398.841C53.3709 399.498 53.9036 399.813 56.8233 401.682C57.5016 403.113 58.0121 404.805 59.3936 405.497L60.0323 405.039C60.6481 400.802 57.4211 392.115 57.5421 391.559C63.5448 390.792 77.0652 394.457 82.9981 392.341C89.5793 395.267 99.6602 397.754 104.163 400.034C120.316 408.279 136.469 417.289 153.202 424.436C159.82 427.262 168.713 429.885 175.559 427.131C176.671 427.015 182.265 426.448 183.077 426.574C190.017 427.648 192.878 428.802 200.167 428.957C198.35 431.859 197.28 433.335 196.272 436.537L196.008 437.285C195.208 439.195 194.029 442.588 196.2 444.081C197.858 442.554 206.737 434.664 207.625 433.467C211.446 428.406 214.942 414.175 218.769 410.021C230.98 396.767 246.573 386.585 257.16 371.816C259.362 368.745 262.598 367.616 264.883 363.432C265.706 360.357 266.047 359.184 266.19 356.058C265.834 354.09 265.204 348.439 264.525 346.952C259.373 335.674 260.65 317.707 254.946 307.231L254.272 307.247C250.679 310.894 250.503 318.407 250.588 322.996C245.353 319.712 235.321 314.347 228.88 315.208C222.835 316.016 217.286 320.441 210.867 321.206C194.786 325.914 193.205 325.69 176.185 322.479C167.909 321.681 153.663 318.677 146.367 319.028C137.606 320.457 129.099 324.989 119.32 325.498C114.813 325.734 100.721 336.225 96.1387 339.423C92.5197 342.64 89.8 340.844 85.2735 340.563C84.9287 342.271 84.6402 343.989 84.4092 345.714C85.5335 346.244 85.0237 346.02 86.5694 345.899L87.0069 346.517C84.3924 349.823 81.243 347.53 77.8995 346.102C75.3781 342.038 62.24 332.869 57.6876 330.812C56.9079 331.859 55.9937 333.485 55.2989 334.633C49.4559 331.133 43.2693 326.656 37.6563 322.74C37.2641 318.223 36.889 308.042 36.0274 304.112C39.9793 294.648 55.2911 277.083 61.126 266.298C60.0778 255.399 62.7346 241.271 63.4825 229.536C63.8273 224.043 63.8684 218.537 63.6055 213.04C63.3328 207.665 62.5117 201.988 63.2608 196.633C63.9951 191.387 90.7948 149.651 95.1514 142.489C95.8397 141.443 97.4775 139.527 98.6358 138.575C114.087 125.88 132.087 113.911 149.757 104.113C151.108 103.364 153.691 103.421 155.201 103.448C159.963 100.792 168.354 93.7123 173.394 92.4375C190.571 87.4964 209.965 87.7245 227.423 85.3506C245.081 82.9492 249.724 82.0216 267.897 84.3184C278.669 85.5421 287.629 91.6886 296.255 83.252C300.664 83.2919 305.221 83.4422 309.595 83.0166ZM657.838 505.33C643.743 504.798 626.246 501.415 613.468 502.005C598.52 503.113 583.695 505.454 568.729 504.341C566.442 504.172 564.68 506.048 564.155 507.99C565.393 514.113 583.873 519.599 589.191 522.742C600.184 529.233 609.308 538.19 618.365 546.778C621.903 550.081 624.25 551.962 628.148 554.875C632.947 549.009 639.01 541.959 644.38 536.39C645.064 535.676 644.994 528.414 646.774 527.017C648.592 524.733 652.712 523.287 653.874 521.398C652.796 517.147 652.197 516.672 654.797 512.779C656.554 510.141 656.966 508.345 657.838 505.33ZM235.427 484.012C234.532 484.739 232.615 486.229 232.752 487.604C233.519 495.305 244.326 509.511 251.53 512.886C263.809 518.637 270.71 527.97 280.118 537.06C285.313 541.924 286.826 552.582 295.617 552.224C305.725 552.423 310.459 549.47 318.984 545.249C322.23 539.951 324.188 536.048 326.297 530.169C327.793 525.997 329.223 520.854 331.211 516.979L331.535 516.455C335.309 510.443 348.42 498.112 347.54 490.885L346.889 490.184C343.841 491.748 342.98 490.543 339.916 489.075C338.317 491.053 332.901 498.094 331.043 498.999C325.083 501.903 320.146 504.989 314.592 508.461C305.002 508.674 295.5 504.643 286.188 502.719C278.993 501.233 258.079 499.615 253.398 495.381C251.811 493.944 250.542 492.113 248.535 491.19C245.866 491.359 245.486 492.507 243.852 491.164C241.215 488.992 238.514 485.4 235.427 484.012ZM413.859 302.123C412.651 303.201 410.799 304.666 410.045 305.981C408.7 306.834 407.345 307.677 405.991 308.511C387.07 320.26 364.009 324.453 341.835 320.177C331.407 325.81 330.53 332.357 328.222 342.677C327.117 347.613 325.951 352.204 325.388 357.267C325.682 357.754 325.988 358.235 326.304 358.71C335.26 372.299 353.36 385.375 365.277 397.092C371.15 402.866 376.233 408.69 382.057 414.438C384.056 416.412 387.693 417.945 389.464 419.765C392.983 423.38 395.111 428.766 399.276 431.975C402.097 434.15 407.238 434.946 410.902 435.738C409.665 431.967 405.697 417.59 406.728 414.152C407.782 410.628 420.841 406.293 425.054 404.598C440.873 412.774 455.263 410.668 472.315 407.461C477.624 406.463 492.201 401.088 496.343 404.79C497.504 407.629 494.637 411.937 492.327 413.31C482.932 418.881 472.675 421.366 463.5 427.696C470.932 433.169 473.626 430.456 481.212 436.695C494.997 436.742 499.74 439.71 511.136 446.878C510.574 446.524 519.092 448.146 520.315 448.521C525.376 446.345 527.293 443.744 530.666 439.724C536.406 432.891 542.277 426.438 549.395 420.853L555.402 415.576C557.291 413.357 559.47 408.892 561.677 407.05C574.389 396.426 589.642 388.597 600.972 376.402C606.055 366.694 600.924 354.496 598.534 344.458C596.337 335.235 595.493 321.062 586.529 315.683C573.742 315.252 570.368 318.464 560.823 318.83C545.06 319.435 525.164 312.711 510.081 309.021C502.668 312.928 499.543 318.109 493.607 323.558C490.795 326.139 488.072 328.425 485.313 331.132C490.748 331.838 493.513 332.731 498.48 333.713C502.505 334.508 511.895 331.996 516.295 335.659C517.419 336.588 518.066 337.931 518.07 339.344C518.084 342.734 514.94 344.404 511.895 345.027C509.28 345.766 505.049 344.903 502.584 345.511C488.105 349.026 473.499 350.749 458.87 353.673C450.497 355.347 441.345 358.202 432.766 358.431C431.745 358.458 431.037 357.489 430.47 356.796C428.989 350.4 438.257 344.902 441.107 340.487C444.541 335.175 448.693 329.302 452.02 324.141C454.512 320.271 450.342 308.376 448.679 304.075C443.047 304.832 439.982 304.995 434.42 304.952C433.146 304.278 432.063 303.517 430.878 302.722C427.575 303.484 424.74 304.531 421.567 305.638C417.383 304.696 416.806 304.925 413.859 302.123Z" fill="white"/>
<path d="M144.477 259.547V256.701L153.727 256.132L157.57 253.997V226.389L123.7 162.065L116.157 159.93V157.084H155.72V159.93L140.777 162.065V165.053L168.812 219.416H169.951L198.697 165.053V162.065L184.324 159.93V157.084H213.071V159.93L205.813 162.065L171.516 226.104V253.997L175.358 256.132L184.609 256.701V259.547H144.477Z" fill="black"/>
<path d="M619.97 259.547V256.701L627.797 256.132L631.071 253.997V162.634L627.797 160.499L619.97 159.93V157.084H656.117V159.93L648.29 160.499L645.017 162.634V253.997L648.29 256.132L656.117 256.701V259.547H619.97Z" fill="black"/>
</g>
</svg>
