<svg width="1240" height="83" viewBox="0 0 1240 83" fill="none" xmlns="http://www.w3.org/2000/svg">
<path d="M298.744 80.226V78.3705L304.856 78.0431L307.257 76.6242V5.24245L304.856 3.82355L298.744 3.49612V1.64062H324.939V3.49612L317.844 3.82355L315.006 5.24245V38.5321H354.299V5.24245L351.461 3.82355L344.258 3.49612V1.64062H370.453V3.49612L364.45 3.82355L362.049 5.24245V76.6242L364.45 78.0431L370.453 78.3705V80.226H344.258V78.3705L351.461 78.0431L354.299 76.6242V41.479H315.006V76.6242L317.844 78.0431L324.939 78.3705V80.226H298.744Z" fill="#EEEEEE"/>
<path d="M244.223 80.222V78.3665L251.536 78.039L254.483 76.6201V4.47439L237.237 3.38293L228.397 24.9939H226.323L229.597 1.2V0.872559H231.234L235.6 1.63659H281.223L285.48 0.872559H287.117V1.2L290.392 24.9939H288.318L279.477 3.38293L262.232 4.47439V76.6201L265.179 78.039L272.492 78.3665V80.222H244.223Z" fill="#EEEEEE"/>
<path d="M184.095 81.7541C167.177 81.7541 156.372 70.0754 156.372 51.1931V5.24245L153.97 3.82355L147.967 3.49612V1.64062H175.363V3.49612L167.286 3.82355L164.121 5.24245V51.9571C164.121 67.4559 172.853 77.0608 186.387 77.0608C199.921 77.0608 208.434 67.565 208.434 52.0662V5.24245L205.488 3.82355L198.066 3.49612V1.64062H219.567V3.49612L214.11 3.82355L211.927 5.24245V51.7388C211.927 70.6211 201.013 81.7541 184.095 81.7541Z" fill="#EEEEEE"/>
<path d="M107.499 81.8598C87.3066 81.8598 73.2267 64.1781 73.2267 40.6024C73.2267 16.6994 88.398 0 108.263 0C128.455 0 142.644 17.7909 142.644 41.2573C142.644 65.1604 127.472 81.8598 107.499 81.8598ZM81.3035 38.0921C81.3035 62.3226 93.7462 79.1311 109.354 79.1311C124.416 79.1311 134.567 64.0689 134.567 43.7677C134.567 19.428 122.124 2.51037 106.407 2.51037C91.4541 2.51037 81.3035 17.6817 81.3035 38.0921Z" fill="#EEEEEE"/>
<path d="M21.611 80.226V78.3705L28.9238 78.0431L31.8707 76.6242V54.3583L5.45732 4.80587L0 3.49612V1.64062H26.9592V3.49612L15.2805 4.69672V6.9888L37.8738 50.1016H38.747L62.1043 6.9888V4.69672L50.8622 3.49612V1.64062H72.0366V3.49612L66.6884 4.80587L39.6201 54.2492V76.6242L42.5671 78.0431L49.8799 78.3705V80.226H21.611Z" fill="#EEEEEE"/>
<path d="M1181.28 80.6264V78.7709L1187.39 78.4435L1189.79 77.0246V5.64284L1187.39 4.22394L1181.28 3.89651V2.04102H1236.29V3.24162L1239.45 22.0148H1237.49L1228.98 4.76967H1197.54V38.7142H1213.7L1224.72 36.9679H1226.58V43.5166H1224.72L1213.7 41.7703H1197.54V77.8977H1228.98L1237.93 58.9063H1240L1236.73 79.5349V80.6264H1181.28Z" fill="#EEEEEE"/>
<path d="M1144.73 82.2631C1124.43 82.2631 1108.83 64.6905 1108.83 41.6606C1108.83 18.1942 1125.2 0.40332 1146.48 0.40332C1156.41 0.40332 1165.58 4.33258 1171.26 8.69844L1173.44 25.3978H1170.82L1168.75 19.6131C1163.73 5.5332 1151.28 2.91369 1144.95 2.91369C1129.13 2.91369 1116.9 18.7399 1116.9 39.5869C1116.9 61.6344 1129.78 77.6789 1147.35 77.6789C1158.16 77.6789 1163.94 71.5667 1170.71 63.7082L1172.57 65.6728C1164.93 75.496 1157.07 82.2631 1144.73 82.2631Z" fill="#EEEEEE"/>
<path d="M1088.31 80.6264L1042.14 8.04407L1042.47 77.0246L1045.96 78.4435L1054.58 78.7709V80.6264H1029.22V78.7709L1036.57 78.4435L1038.97 77.0246V5.20626L1030.57 3.89651V2.04102H1047.05L1090.27 69.9301L1089.94 5.64284L1086.56 4.22394L1077.94 3.89651V2.04102H1101.95V3.89651L1095.84 4.22394L1093.44 5.64284V74.9508L1096.38 79.5349V80.6264H1088.31Z" fill="#EEEEEE"/>
<path d="M1003.04 80.6188V78.7633L1012.97 77.5627V75.2706L1004.46 52.8956H973.246L964.732 75.2706V77.5627L974.119 78.7633V80.6188H954.691V78.7633L960.694 77.4536L987.326 7.92733L985.033 1.81512V0.505371H992.674L1022.36 77.4536L1029.68 78.7633V80.6188H1003.04ZM974.228 50.167H1003.48L988.854 11.8566L974.228 50.167Z" fill="#EEEEEE"/>
<path d="M887.49 80.6264V78.7709L893.602 78.4435L896.003 77.0246V5.64284L893.711 4.22394L888.036 3.89651V2.04102H920.125C935.732 2.04102 945.992 9.79041 945.992 21.9057C945.992 33.9118 936.169 42.2069 920.343 42.8618L946.756 77.0246L955.379 78.5526V80.6264H940.207L912.266 42.9709H903.753V77.0246L907.136 78.4435L915.759 78.7709V80.6264H887.49ZM903.753 40.5697H918.051C930.057 40.5697 938.243 33.2569 938.243 22.6697C938.243 12.1916 930.057 5.09711 917.723 5.09711H903.753V40.5697Z" fill="#EEEEEE"/>
<path d="M845.04 82.2631C824.848 82.2631 810.768 64.5814 810.768 41.0058C810.768 17.1027 825.939 0.40332 845.804 0.40332C865.996 0.40332 880.185 18.1942 880.185 41.6606C880.185 65.5637 865.014 82.2631 845.04 82.2631ZM818.845 38.4954C818.845 62.7259 831.287 79.5344 846.895 79.5344C861.958 79.5344 872.108 64.4722 872.108 44.171C872.108 19.8314 859.666 2.91369 843.948 2.91369C828.995 2.91369 818.845 18.085 818.845 38.4954Z" fill="#EEEEEE"/>
<path d="M788.929 80.6264L742.76 8.04407L743.088 77.0246L746.58 78.4435L755.203 78.7709V80.6264H731.081V78.7709L737.194 78.4435L739.595 77.0246V5.20626L731.191 3.89651V2.04102H747.672L790.894 69.9301L790.566 5.64284L787.183 4.22394L778.56 3.89651V2.04102H802.572V3.89651L796.46 4.22394L794.059 5.64284V74.9508L797.006 79.5349V80.6264H788.929Z" fill="#EEEEEE"/>
<path d="M685.309 82.2631C664.681 82.2631 649.619 65.5637 649.619 41.9881C649.619 18.1942 665.881 0.40332 687.929 0.40332C696.224 0.40332 706.92 3.02283 713.688 8.26185L715.98 23.8698H713.36L711.286 18.6308C706.484 6.62466 694.805 2.91369 686.728 2.91369C670.466 2.91369 657.695 18.1942 657.695 40.0234C657.695 62.9442 669.702 79.0978 687.274 79.0978C696.006 79.0978 701.572 75.0594 707.684 67.6375V48.7552L702.991 47.3363L691.313 47.0088V45.1533H721.219V47.0088L715.434 48.3186V80.6259H713.36L709.54 69.1655C702.664 77.7881 695.46 82.2631 685.309 82.2631Z" fill="#EEEEEE"/>
<path d="M614.657 80.6264V78.7709L620.988 78.4435L623.498 77.0246V5.64284L620.988 4.22394L614.657 3.89651V2.04102H640.198V3.89651L633.758 4.22394L631.247 5.64284V77.0246L633.758 78.4435L640.198 78.7709V80.6264H614.657Z" fill="#EEEEEE"/>
<path d="M489.551 68.0058V42.1663H463.763V37.9202H489.551V12.1843H493.693V37.9202H519.584V42.1663H493.693V68.0058H489.551Z" fill="#EEEEEE"/>
</svg>
